:SAMPLES-PER-SECOND 30
:FULLY-SPECIFIED
:DEGREES
870
root  73.1605 33.7861 8.08175 178.311 41.2779 175.974
RightUpLeg  -39.9949 -29.2821 5.31888
RightLeg  56.5318 -2.81036 -5.03388
RightFoot  -19.6933 -0.867728 -10.0158
RightToes  7.56698e-010 0 -3.6325e-017
Spine  41.568 -1.11337 -4.19635
Spine1  -16.8134 -3.79 4.69593
HEad  -29.2671 9.74461 -6.89612
LeftShoulder1  1.65432 -7.27648 -7.77233
LeftArm  -38.0397 -74.2869 -20.8361
LeftForeArm  5.93913 -66.9959 -27.7176
LeftHand  -0.136598 10.4944 -1.9929
RightShoulder  6.11733 -8.26141 -112.798
RightArm  -108.162 -3.79545 130.028
RightForeArm  71.0759 61.1704 155.421
RightHand  -5.09754 25.739 -19.2114
LeftUpLeg  -40.182 11.5876 12.9209
LeftLeg  38.348 -3.2784 -2.40304
LeftFoot  -5.77648 0.580478 -11.2034
LeftToes  -2.88401e-009 5.30678e-011 -1.08654e-010
871
root  73.3185 34.2724 8.535 179.241 38.0962 175.973
RightUpLeg  -39.5379 -30.8174 6.10675
RightLeg  53.1975 -3.63936 -5.62004
RightFoot  -19.2974 -0.674605 -7.81152
RightToes  7.56698e-010 0 -3.6325e-017
Spine  40.9137 -1.53013 -3.58803
Spine1  -16.6965 -3.77971 2.25725
HEad  -30.0836 6.11803 -6.60853
LeftShoulder1  1.24772 -8.02819 -2.72556
LeftArm  -37.7301 -73.2114 -24.3679
LeftForeArm  9.06657 -68.1548 -29.2353
LeftHand  0.0345275 11.9287 1.34697
RightShoulder  -4.67765 0.484569 -108.982
RightArm  -121.057 -11.4611 127.737
RightForeArm  72.6712 59.9273 156.636
RightHand  -4.56368 28.5498 -15.7695
LeftUpLeg  -38.9473 12.1637 12.3193
LeftLeg  41.3968 -0.459951 -0.040633
LeftFoot  -6.54353 0.468884 -10.2493
LeftToes  -2.88401e-009 5.30678e-011 -1.08654e-010
872
root  73.4594 34.7256 8.93757 -179.607 34.5102 176.352
RightUpLeg  -39.3296 -32.9539 7.29987
RightLeg  50.0266 -4.64018 -6.27899
RightFoot  -18.4884 -0.575925 -7.23398
RightToes  7.56698e-010 0 -3.6325e-017
Spine  41.1909 -2.32785 -2.61667
Spine1  -18.2736 -4.11456 0.382098
HEad  -29.1824 3.11709 -4.78457
LeftShoulder1  0.949707 -8.76629 0.823277
LeftArm  -38.351 -70.7767 -27.9523
LeftForeArm  8.74881 -67.3004 -27.8009
LeftHand  -0.186623 8.44245 -4.56641
RightShoulder  -10.849 6.49578 -104.859
RightArm  -128.35 -16.9049 126.199
RightForeArm  70.2092 58.6952 157.727
RightHand  -5.36891 29.4967 -18.0022
LeftUpLeg  -37.6846 12.3252 12.2975
LeftLeg  44.5447 1.62955 2.10324
LeftFoot  -7.03721 0.388502 -9.19546
LeftToes  -2.88401e-009 5.30678e-011 -1.08654e-010
873
root  73.5967 35.165 9.30073 -178.696 31.3275 176.651
RightUpLeg  -38.9549 -34.6546 8.43717
RightLeg  46.9162 -5.84109 -6.99015
RightFoot  -16.7936 -0.493916 -7.98832
RightToes  7.56698e-010 0 -3.6325e-017
Spine  40.1981 -2.42666 -2.1257
Spine1  -17.6618 -3.97373 -0.512778
HEad  -26.4628 5.66055 0.119257
LeftShoulder1  0.936986 -8.49865 0.721829
LeftArm  -39.7952 -72.4054 -26.0417
LeftForeArm  7.20668 -66.6808 -27.0145
LeftHand  -0.143 7.80539 -4.30568
RightShoulder  -17.5787 13.8171 -101.024
RightArm  -138.411 -23.4142 125.641
RightForeArm  68.7508 57.4123 158.79
RightHand  -5.0527 31.7124 -15.9463
LeftUpLeg  -35.8633 13.8103 12.3344
LeftLeg  47.2241 1.76897 2.45982
LeftFoot  -7.53018 0.293374 -7.47165
LeftToes  -2.88401e-009 5.30678e-011 -1.08654e-010
874
root  73.6674 35.5338 9.63769 -177.839 27.7463 176.903
RightUpLeg  -38.9085 -36.6146 9.45809
RightLeg  44.2318 -7.04432 -7.60979
RightFoot  -15.3247 -0.396049 -8.37166
RightToes  7.56698e-010 0 -3.6325e-017
Spine  39.3639 -2.58583 -2.2318
Spine1  -16.9588 -4.19135 0.0871278
HEad  -11.1293 18.8548 17.1458
LeftShoulder1  0.93041 -8.30625 0.640873
LeftArm  -42.6121 -73.182 -23.9044
LeftForeArm  6.4376 -66.4207 -26.7186
LeftHand  -0.226885 8.53161 -6.52257
RightShoulder  -21.605 19.1616 -97.4971
RightArm  -145.452 -27.9428 124.942
RightForeArm  67.977 56.0383 159.839
RightHand  -4.6056 31.7264 -14.6007
LeftUpLeg  -34.0136 14.8819 12.6604
LeftLeg  49.2285 1.52175 2.32888
LeftFoot  -8.32614 0.244951 -7.41126
LeftToes  -2.88401e-009 5.30678e-011 -1.08654e-010
875
root  73.7747 35.8265 9.94224 -176.848 24.2497 177.065
RightUpLeg  -39.2976 -38.552 10.6261
RightLeg  41.9051 -8.0336 -7.9557
RightFoot  -14.5559 -0.319964 -7.88636
RightToes  7.56698e-010 0 -3.6325e-017
Spine  39.1363 -3.19887 -2.01519
Spine1  -17.8921 -4.6633 -0.934212
HEad  -14.4654 16.9097 16.167
LeftShoulder1  0.948408 -8.36507 0.512277
LeftArm  -42.3228 -73.7149 -23.0053
LeftForeArm  5.94489 -66.186 -26.4299
LeftHand  -0.248195 10.976 -3.73478
RightShoulder  -22.957 22.7116 -92.6417
RightArm  -148.023 -30.9531 122.613
RightForeArm  66.3989 54.5166 160.924
RightHand  -5.10549 31.6587 -16.1475
LeftUpLeg  -32.5028 16.9514 12.9596
LeftLeg  50.5689 1.70698 2.67237
LeftFoot  -8.44843 0.231987 -7.17689
LeftToes  -2.88401e-009 5.30678e-011 -1.08654e-010
876
root  73.8707 36.0501 10.2225 -176.244 20.9498 177.139
RightUpLeg  -39.5352 -40.2523 11.4934
RightLeg  40.0815 -9.09617 -8.40515
RightFoot  -13.8949 -0.261489 -7.52419
RightToes  7.56698e-010 0 -3.6325e-017
Spine  38.73 -3.64156 -1.44528
Spine1  -18.1453 -4.82393 -2.4121
HEad  -16.8331 15.1646 16.6513
LeftShoulder1  0.943497 -8.28772 0.499969
LeftArm  -42.0487 -74.5771 -22.65
LeftForeArm  6.20542 -66.1177 -26.2942
LeftHand  -0.299357 12.6832 -3.50657
RightShoulder  -24.3267 26.9419 -87.3013
RightArm  -152.651 -34.0928 122.21
RightForeArm  66.8376 53.2768 161.724
RightHand  -4.40816 32.1731 -13.8295
LeftUpLeg  -30.6785 19.9203 13.3454
LeftLeg  51.0639 1.96493 3.06003
LeftFoot  -8.51669 0.210643 -6.47069
LeftToes  -2.88401e-009 5.30678e-011 -1.08654e-010
877
root  73.9627 36.2424 10.4889 -175.453 17.3019 177.081
RightUpLeg  -40.3706 -42.1773 12.5173
RightLeg  38.5968 -10.346 -9.01698
RightFoot  -13.2866 -0.216044 -7.40453
RightToes  7.56698e-010 0 -3.6325e-017
Spine  38.2358 -4.02597 -1.48029
Spine1  -18.5044 -5.15637 -3.04229
HEad  -20.3316 13.3993 16.1282
LeftShoulder1  0.952673 -8.25868 0.38862
LeftArm  -41.3045 -74.8371 -23.4256
LeftForeArm  7.36688 -66.0355 -26.0275
LeftHand  -0.300629 10.8467 -4.94033
RightShoulder  -24.547 30.0904 -82.1587
RightArm  -155.145 -36.3672 120.992
RightForeArm  67.1709 52.0608 162.461
RightHand  -3.77103 31.8167 -12.0445
LeftUpLeg  -29.4066 23.2979 13.4573
LeftLeg  50.5435 2.51349 3.71141
LeftFoot  -8.4588 0.190793 -5.56482
LeftToes  -2.88401e-009 5.30678e-011 -1.08654e-010
878
root  74.0574 36.4165 10.7567 -174.992 14.0486 176.846
RightUpLeg  -40.8663 -43.4159 12.9952
RightLeg  37.3519 -11.6626 -9.67209
RightFoot  -12.6038 -0.16658 -7.53441
RightToes  7.56698e-010 0 -3.6325e-017
Spine  37.7221 -4.0028 -2.39709
Spine1  -17.8056 -5.29089 -3.35511
HEad  -26.3269 10.3348 13.5104
LeftShoulder1  0.947528 -8.18204 0.378114
LeftArm  -42.1211 -75.7573 -23.6702
LeftForeArm  7.48044 -65.4271 -25.1467
LeftHand  -0.236349 8.88935 -5.84358
RightShoulder  -23.9281 32.3197 -77.1485
RightArm  -156.554 -37.9388 118.943
RightForeArm  66.0141 50.7677 163.213
RightHand  -3.85117 32.1004 -12.1941
LeftUpLeg  -27.9628 27.1617 13.329
LeftLeg  49.1627 3.96923 5.34374
LeftFoot  -8.2076 0.183438 -4.91969
LeftToes  -2.88401e-009 5.30678e-011 -1.08654e-010
879
root  74.0549 36.5016 11.0468 -174.802 10.4259 176.609
RightUpLeg  -41.7901 -45.2102 13.3865
RightLeg  37.1422 -13.0003 -10.6252
RightFoot  -11.9727 -0.128779 -8.53319
RightToes  7.56698e-010 0 -3.6325e-017
Spine  37.9898 -4.28227 -2.52087
Spine1  -17.8324 -5.56571 -3.89591
HEad  -34.1265 4.11472 9.58138
LeftShoulder1  0.955564 -8.11584 0.246309
LeftArm  -41.9624 -76.1385 -23.8099
LeftForeArm  6.80778 -65.4294 -25.2368
LeftHand  -0.186834 8.66447 -4.68826
RightShoulder  -23.0028 34.6288 -71.6394
RightArm  -158.662 -39.6766 117.24
RightForeArm  66.4742 49.4465 163.919
RightHand  -3.27066 31.8894 -10.5039
LeftUpLeg  -27.1646 31.1553 12.8149
LeftLeg  47.8463 5.70765 7.132
LeftFoot  -7.95078 0.150271 -3.45968
LeftToes  -2.88401e-009 5.30678e-011 -1.08654e-010
880
root  74.0505 36.5005 11.3216 -174.325 6.9449 176.593
RightUpLeg  -42.8176 -46.276 13.8464
RightLeg  37.1343 -14.4385 -11.7132
RightFoot  -11.9458 -0.119122 -7.36372
RightToes  7.56698e-010 0 -3.6325e-017
Spine  37.9502 -4.09702 -3.29862
Spine1  -17.5213 -5.58201 -2.9299
HEad  -40.2721 -1.04821 7.66824
LeftShoulder1  0.991227 -8.06703 -0.141826
LeftArm  -41.8163 -75.6223 -23.5381
LeftForeArm  7.53229 -65.884 -25.788
LeftHand  -0.0924838 10.0467 -0.73051
RightShoulder  -22.0397 36.4104 -67.072
RightArm  -160.391 -40.588 115.249
RightForeArm  66.7053 48.1308 164.578
RightHand  -2.98368 30.4146 -10.0183
LeftUpLeg  -27.191 35.0002 11.9922
LeftLeg  46.5033 7.89487 9.22765
LeftFoot  -7.96286 0.115328 -2.28415
LeftToes  -2.88401e-009 5.30678e-011 -1.08654e-010
881
root  74.0134 36.4234 11.5931 -174.028 3.96806 176.659
RightUpLeg  -44.2425 -47.8076 14.6705
RightLeg  37.6271 -15.0602 -12.383
RightFoot  -12.1199 -0.129851 -7.192
RightToes  7.56698e-010 0 -3.6325e-017
Spine  38.8351 -3.8008 -4.34568
Spine1  -18.6036 -5.67171 -1.15583
HEad  -45.6231 -8.72566 4.90489
LeftShoulder1  1.10162 -8.32879 -0.994296
LeftArm  -41.4512 -73.5401 -23.7884
LeftForeArm  8.34237 -66.7385 -26.9507
LeftHand  -0.160888 11.3507 -1.70351
RightShoulder  -21.1547 37.2905 -63.9794
RightArm  -159.255 -40.4849 113.018
RightForeArm  67.6007 46.4068 165.384
RightHand  -2.88358 30.5969 -9.65846
LeftUpLeg  -27.3118 38.9592 11.0201
LeftLeg  45.2283 9.68087 10.6872
LeftFoot  -8.15342 0.0887907 -1.42859
LeftToes  -2.88401e-009 5.30678e-011 -1.08654e-010
882
root  73.913 36.3054 11.8543 -173.544 1.20183 176.966
RightUpLeg  -46.5394 -49.571 16.2374
RightLeg  38.5099 -15.3707 -13.0015
RightFoot  -11.6755 -0.103401 -8.30737
RightToes  7.56698e-010 0 -3.6325e-017
Spine  39.153 -4.07885 -4.26996
Spine1  -18.856 -5.88245 -2.01734
HEad  -53.5655 -14.958 0.663617
LeftShoulder1  1.07854 -8.65003 -0.487407
LeftArm  -41.8616 -72.3385 -22.1902
LeftForeArm  8.97474 -67.1267 -27.4804
LeftHand  0.137809 11.6575 3.39062
RightShoulder  -18.9457 37.4933 -58.6875
RightArm  -157.06 -40.3095 109.971
RightForeArm  67.6584 44.8977 166.051
RightHand  -3.07293 29.6462 -10.5177
LeftUpLeg  -28.0657 42.1304 9.62252
LeftLeg  44.052 11.3257 11.8891
LeftFoot  -8.20902 0.0611485 -0.446819
LeftToes  -2.88401e-009 5.30678e-011 -1.08654e-010
883
root  73.6819 36.0684 12.1666 -173.502 -1.96217 177.209
RightUpLeg  -49.2041 -52.2503 17.6711
RightLeg  40.1825 -15.2815 -13.679
RightFoot  -11.7065 -0.105815 -8.45592
RightToes  7.56698e-010 0 -3.6325e-017
Spine  39.149 -4.37509 -3.74545
Spine1  -17.6503 -5.96719 -3.03635
HEad  -64.5123 -23.336 0.845802
LeftShoulder1  0.940229 -8.26686 0.504354
LeftArm  -43.0899 -72.894 -21.3714
LeftForeArm  8.80025 -66.8414 -27.061
LeftHand  0.210038 12.5867 3.55681
RightShoulder  -16.3391 37.4223 -52.5812
RightArm  -155.244 -40.831 106.142
RightForeArm  67.7324 43.9398 166.453
RightHand  -2.92416 30.1562 -9.89056
LeftUpLeg  -28.7874 42.979 7.91767
LeftLeg  42.7923 12.1218 12.1557
LeftFoot  -7.78543 0.0600786 -0.25329
LeftToes  -2.88401e-009 5.30678e-011 -1.08654e-010
884
root  73.4305 35.7639 12.4639 -173.074 -4.61879 178.023
RightUpLeg  -52.5689 -54.0734 20.0824
RightLeg  42.0292 -15.1995 -14.4775
RightFoot  -11.5845 -0.0956905 -8.47292
RightToes  7.56698e-010 0 -3.6325e-017
Spine  37.8676 -4.11491 -3.26542
Spine1  -14.7471 -5.44104 -3.39721
HEad  -63.5799 -22.9979 4.49561
LeftShoulder1  0.790983 -8.36151 2.03358
LeftArm  -49.4913 -73.1454 -18.108
LeftForeArm  7.92725 -66.0898 -26.0253
LeftHand  -0.237387 8.68782 -5.81463
RightShoulder  -13.9281 36.8248 -47.1846
RightArm  -153.65 -40.8913 102.22
RightForeArm  67.403 43.2213 166.749
RightHand  -2.52994 29.5006 -8.79806
LeftUpLeg  -29.8255 42.0954 7.2068
LeftLeg  41.7635 11.2065 10.8969
LeftFoot  -7.72424 0.116621 -3.24415
LeftToes  -2.88401e-009 5.30678e-011 -1.08654e-010
